<svg id="Group_4166" data-name="Group 4166" xmlns="http://www.w3.org/2000/svg" xmlns:xlink="http://www.w3.org/1999/xlink" width="101.99" height="54.02" viewBox="0 0 101.99 54.02">
  <defs>
    <clipPath id="clip-path">
      <rect id="Rectangle_1552" data-name="Rectangle 1552" width="101.99" height="54.02" fill="#feaf47"/>
    </clipPath>
  </defs>
  <g id="Group_4165" data-name="Group 4165" clip-path="url(#clip-path)">
    <path id="Path_1347" data-name="Path 1347" d="M162.241,5.914c1.428-4.1,3.727-6.007,7.134-5.912,3.27.092,5.66,2.2,6.687,5.915.611.331,1.27.645,1.886,1.028a17.017,17.017,0,0,1,8.506,14.737c.06,2,.046,4,0,5.991a15.32,15.32,0,0,0,3.328,10.08,12.28,12.28,0,0,1,2.575,7.236c.073,1.853-.76,2.706-2.609,2.71q-5.619.012-11.238,0H177.5c-1.436,3.935-4.081,6.276-8.246,6.313-4.256.038-6.955-2.319-8.43-6.317H159.72c-3.683,0-7.365.008-11.048-.008a4.137,4.137,0,0,1-1.4-.2,2.178,2.178,0,0,1-1.306-2.322,12.714,12.714,0,0,1,2.647-7.5,15.364,15.364,0,0,0,2.56-4.752,15.687,15.687,0,0,0,.7-4.68c.008-2.507-.1-5.025.082-7.52.475-6.507,3.731-11.251,9.455-14.33.251-.135.508-.26.761-.393.026-.014.044-.045.071-.074m25.421,37.37a7.025,7.025,0,0,0-1.267-2.79c-.5-.73-1.054-1.434-1.511-2.193a18.408,18.408,0,0,1-2.789-9.837c.022-2.123.006-4.247,0-6.37a12.9,12.9,0,0,0-8.614-12.451c-1.373-.519-1.715-1.086-1.79-2.568a3.58,3.58,0,0,0-.52-1.679,2.4,2.4,0,0,0-2.786-.891A2.5,2.5,0,0,0,166.63,6.95c-.036,1.643-.377,2.165-1.75,2.683a12.909,12.909,0,0,0-8.654,12.526c0,1.9.093,3.8.083,5.706a19.941,19.941,0,0,1-4.057,12.242,18.528,18.528,0,0,0-1.407,2.467,2.875,2.875,0,0,0-.166.711Zm-22.034,4.465a4.178,4.178,0,0,0,3.972,1.909,4.063,4.063,0,0,0,3.094-1.909Z" transform="translate(-118.155 0.001)" fill="#feaf47"/>
    <path id="Path_1348" data-name="Path 1348" d="M477.594,48.151a25.974,25.974,0,0,0-7.373-18.094,2.5,2.5,0,0,1-.866-1.735,2.081,2.081,0,0,1,1.2-2.006,2.053,2.053,0,0,1,2.245.185,4.417,4.417,0,0,1,.628.579A29.608,29.608,0,0,1,481.8,45.5a29.789,29.789,0,0,1-8.216,23.517,5.961,5.961,0,0,1-.753.725,2.172,2.172,0,0,1-3.069-3.006,8.268,8.268,0,0,1,.7-.776,25.956,25.956,0,0,0,7.134-17.812" transform="translate(-379.922 -21.099)" fill="#feaf47"/>
    <path id="Path_1349" data-name="Path 1349" d="M0,48.342A30.257,30.257,0,0,1,8.338,27.323a6.206,6.206,0,0,1,.828-.783,2.171,2.171,0,0,1,3.053,3,5.552,5.552,0,0,1-.566.641,25.887,25.887,0,0,0-.089,35.908,7.846,7.846,0,0,1,.576.633,2.172,2.172,0,0,1-3.1,3.008,4.96,4.96,0,0,1-.479-.462A30.063,30.063,0,0,1,0,48.342" transform="translate(0 -21.146)" fill="#feaf47"/>
    <path id="Path_1350" data-name="Path 1350" d="M448.57,73.318a21.842,21.842,0,0,1-6.11,15.088,4.406,4.406,0,0,1-.629.579,2.171,2.171,0,0,1-3.125-2.869,5.035,5.035,0,0,1,.667-.8,17.561,17.561,0,0,0,.025-24.159,7.124,7.124,0,0,1-.57-.637,2.174,2.174,0,0,1,3.052-3.028,4.9,4.9,0,0,1,.62.588,21.911,21.911,0,0,1,6.072,15.24" transform="translate(-354.875 -46.187)" fill="#feaf47"/>
    <path id="Path_1351" data-name="Path 1351" d="M43.7,72.907A21.832,21.832,0,0,1,49.731,58.1a6,6,0,0,1,.542-.534,2.175,2.175,0,0,1,3.089,3.042c-.157.2-.342.374-.516.56a17.551,17.551,0,0,0-.113,23.946c.193.211.4.407.583.627a2.187,2.187,0,0,1-.123,3.015,2.125,2.125,0,0,1-3,0,20.343,20.343,0,0,1-3.774-4.989A22.344,22.344,0,0,1,43.7,72.907" transform="translate(-35.371 -46.17)" fill="#feaf47"/>
    <path id="Path_1352" data-name="Path 1352" d="M87.491,97.88a13.363,13.363,0,0,1,3.8-9.1,2.249,2.249,0,0,1,1.936-.82A2.051,2.051,0,0,1,95,89.229a2.122,2.122,0,0,1-.259,2.244c-.154.2-.336.379-.505.568a9.164,9.164,0,0,0-2.1,8.326,8.818,8.818,0,0,0,2.249,4.226,3.215,3.215,0,0,1,.745,1.285,2.053,2.053,0,0,1-1.035,2.342,2.137,2.137,0,0,1-2.553-.325,12.75,12.75,0,0,1-2.937-4.283,14.06,14.06,0,0,1-1.108-5.732" transform="translate(-70.821 -71.193)" fill="#feaf47"/>
    <path id="Path_1353" data-name="Path 1353" d="M415.2,98.211a13.45,13.45,0,0,1-3.523,9.166,5.265,5.265,0,0,1-.68.663,2.17,2.17,0,0,1-3.153-2.89,5.87,5.87,0,0,1,.613-.725,9.284,9.284,0,0,0,0-12.4,7.049,7.049,0,0,1-.505-.568,2.173,2.173,0,0,1,3.125-2.984,5.142,5.142,0,0,1,.54.534,13.4,13.4,0,0,1,3.586,9.2" transform="translate(-329.854 -71.193)" fill="#feaf47"/>
  </g>
</svg>
