<svg xmlns="http://www.w3.org/2000/svg" width="18.003" height="18" viewBox="0 0 18.003 18">
  <g id="Group_3409" data-name="Group 3409" transform="translate(0 0)">
    <path id="Path_1176" data-name="Path 1176" d="M17.994,8.751a3.68,3.68,0,0,0-.448-1.513,3.586,3.586,0,0,0-1.07-1.2.2.2,0,0,1-.093-.229,3.4,3.4,0,0,0-.173-1.847,3.575,3.575,0,0,0-1.836-2.023,3.524,3.524,0,0,0-2.2-.316.175.175,0,0,1-.2-.078A3.656,3.656,0,0,0,7.747.225,3.494,3.494,0,0,0,6.016,1.553a.158.158,0,0,1-.173.072c-.206-.028-.414-.047-.621-.07l0,.018c-.079,0-.158,0-.236,0s-.183.021-.275.035A3.581,3.581,0,0,0,2.164,3.224a3.54,3.54,0,0,0-.6,2.047,5.264,5.264,0,0,0,.052.561.169.169,0,0,1-.068.186,3.645,3.645,0,0,0-1.5,3.6,3.581,3.581,0,0,0,1.486,2.36.166.166,0,0,1,.08.186,3.455,3.455,0,0,0-.044.929,3.566,3.566,0,0,0,.5,1.558,3.613,3.613,0,0,0,2.1,1.632,3.432,3.432,0,0,0,1.632.1.192.192,0,0,1,.226.1,3.126,3.126,0,0,0,.655.7,3.616,3.616,0,0,0,2.684.8,3.52,3.52,0,0,0,2.161-1.01A6.822,6.822,0,0,0,12,16.432c.035-.042.064-.074.127-.06a3.305,3.305,0,0,0,.785.055,3.467,3.467,0,0,0,1.417-.337,3.686,3.686,0,0,0,1.541-1.359,3.572,3.572,0,0,0,.564-1.892,5.373,5.373,0,0,0-.054-.674.166.166,0,0,1,.072-.18,4.13,4.13,0,0,0,.441-.367A3.545,3.545,0,0,0,17.887,9.9,3.649,3.649,0,0,0,17.994,8.751Zm-2.033,1.358a1.88,1.88,0,0,1-.545.507,4.709,4.709,0,0,1-1.076.477c-.168.058-.163.055-.09.222.129.3.269.593.368.9a2.256,2.256,0,0,1,.1.665,1.708,1.708,0,0,1-.468,1.173,2.222,2.222,0,0,1-.592.485,1.577,1.577,0,0,1-.931.187,3.907,3.907,0,0,1-1.181-.367c-.106-.047-.215-.09-.319-.141-.061-.03-.089-.02-.113.046-.077.212-.162.422-.242.633a2.59,2.59,0,0,1-.559.889,1.643,1.643,0,0,1-1.036.491,2.39,2.39,0,0,1-.694-.019,1.732,1.732,0,0,1-1.081-.672A3.532,3.532,0,0,1,7,14.593c-.039-.109-.081-.218-.116-.329-.021-.066-.049-.076-.112-.046-.22.1-.44.206-.664.3a2.5,2.5,0,0,1-.955.216,1.749,1.749,0,0,1-1.2-.475,2.058,2.058,0,0,1-.56-.773A1.832,1.832,0,0,1,3.322,12.4a4.268,4.268,0,0,1,.344-.932c.038-.081.076-.161.119-.239.034-.062.018-.089-.046-.112-.219-.078-.439-.154-.653-.245a2.54,2.54,0,0,1-.871-.551,1.745,1.745,0,0,1-.505-1.2,2.059,2.059,0,0,1,.195-1,1.769,1.769,0,0,1,.58-.665,3.564,3.564,0,0,1,.849-.431c.132-.048.264-.1.4-.14.072-.024.086-.054.053-.127-.126-.281-.254-.561-.363-.849A1.892,1.892,0,0,1,3.4,4.5a1.849,1.849,0,0,1,.35-.552,1.989,1.989,0,0,1,.823-.577,1.862,1.862,0,0,1,1.181-.007c.273.084.534.209.8.317.066.027.129.064.194.095.1.047.1.046.141-.054.083-.214.158-.431.247-.642a2.674,2.674,0,0,1,.553-.87,1.632,1.632,0,0,1,.869-.456A2.014,2.014,0,0,1,9.9,1.911a1.834,1.834,0,0,1,.825.859c.146.308.26.632.386.95.042.107.037.107.14.06a5.052,5.052,0,0,1,1.246-.465,1.749,1.749,0,0,1,1.55.433,2.236,2.236,0,0,1,.478.585,1.716,1.716,0,0,1,.2,1,3.823,3.823,0,0,1-.476,1.389c-.069.135-.068.134.069.189.295.119.6.226.883.361a1.928,1.928,0,0,1,.776.639,1.878,1.878,0,0,1,.322,1.143A1.845,1.845,0,0,1,15.961,10.108Z" transform="translate(0)" fill="#fff"/>
    <path id="Path_1177" data-name="Path 1177" d="M159.436,175.739a.392.392,0,0,0-.587,0c-.573.574-1.152,1.142-1.727,1.713q-.59.586-1.178,1.175c-.109.108-.109.109-.22,0q-.595-.6-1.189-1.193a.365.365,0,0,0-.552-.01c-.255.258-.514.513-.77.77a.355.355,0,0,0,0,.557c.285.291.569.583.856.872q.731.736,1.465,1.468a.363.363,0,0,0,.581,0q.981-.972,1.962-1.944,1.049-1.043,2.094-2.088a.358.358,0,0,0,0-.572C159.927,176.235,159.673,175.994,159.436,175.739Z" transform="translate(-147.697 -169.433)" fill="#fff"/>
  </g>
</svg>
