<svg xmlns="http://www.w3.org/2000/svg" xmlns:xlink="http://www.w3.org/1999/xlink" width="237.459" height="125.771" viewBox="0 0 237.459 125.771">
  <defs>
    <filter id="Path_1347">
      <feOffset dy="3" input="SourceAlpha"/>
      <feGaussianBlur stdDeviation="2" result="blur"/>
      <feFlood flood-opacity="0.129" result="color"/>
      <feComposite operator="out" in="SourceGraphic" in2="blur"/>
      <feComposite operator="in" in="color"/>
      <feComposite operator="in" in2="SourceGraphic"/>
    </filter>
    <filter id="Path_1348">
      <feOffset dy="3" input="SourceAlpha"/>
      <feGaussianBlur stdDeviation="2" result="blur-2"/>
      <feFlood flood-opacity="0.129" result="color-2"/>
      <feComposite operator="out" in="SourceGraphic" in2="blur-2"/>
      <feComposite operator="in" in="color-2"/>
      <feComposite operator="in" in2="SourceGraphic"/>
    </filter>
    <filter id="Path_1349">
      <feOffset dy="3" input="SourceAlpha"/>
      <feGaussianBlur stdDeviation="2" result="blur-3"/>
      <feFlood flood-opacity="0.129" result="color-3"/>
      <feComposite operator="out" in="SourceGraphic" in2="blur-3"/>
      <feComposite operator="in" in="color-3"/>
      <feComposite operator="in" in2="SourceGraphic"/>
    </filter>
    <filter id="Path_1350">
      <feOffset dy="3" input="SourceAlpha"/>
      <feGaussianBlur stdDeviation="2" result="blur-4"/>
      <feFlood flood-opacity="0.129" result="color-4"/>
      <feComposite operator="out" in="SourceGraphic" in2="blur-4"/>
      <feComposite operator="in" in="color-4"/>
      <feComposite operator="in" in2="SourceGraphic"/>
    </filter>
    <filter id="Path_1351">
      <feOffset dy="3" input="SourceAlpha"/>
      <feGaussianBlur stdDeviation="2" result="blur-5"/>
      <feFlood flood-opacity="0.129" result="color-5"/>
      <feComposite operator="out" in="SourceGraphic" in2="blur-5"/>
      <feComposite operator="in" in="color-5"/>
      <feComposite operator="in" in2="SourceGraphic"/>
    </filter>
    <filter id="Path_1352">
      <feOffset dy="3" input="SourceAlpha"/>
      <feGaussianBlur stdDeviation="2" result="blur-6"/>
      <feFlood flood-opacity="0.129" result="color-6"/>
      <feComposite operator="out" in="SourceGraphic" in2="blur-6"/>
      <feComposite operator="in" in="color-6"/>
      <feComposite operator="in" in2="SourceGraphic"/>
    </filter>
    <filter id="Path_1353">
      <feOffset dy="3" input="SourceAlpha"/>
      <feGaussianBlur stdDeviation="2" result="blur-7"/>
      <feFlood flood-opacity="0.129" result="color-7"/>
      <feComposite operator="out" in="SourceGraphic" in2="blur-7"/>
      <feComposite operator="in" in="color-7"/>
      <feComposite operator="in" in2="SourceGraphic"/>
    </filter>
  </defs>
  <g id="Group_4218" data-name="Group 4218" transform="translate(-456 -796.638)" opacity="0.5">
    <g data-type="innerShadowGroup">
      <path id="Path_1347-2" data-name="Path 1347" d="M183.859,13.771C187.183,4.225,192.537-.215,200.468.007c7.612.214,13.178,5.111,15.568,13.773,1.424.771,2.957,1.5,4.39,2.394,12.712,7.9,19.356,19.347,19.8,34.312.139,4.645.108,9.3,0,13.949A35.668,35.668,0,0,0,247.98,87.9a28.591,28.591,0,0,1,6,16.848c.169,4.315-1.769,6.3-6.075,6.309q-13.083.029-26.165.009H219.39c-3.344,9.162-9.5,14.612-19.2,14.7-9.91.089-16.193-5.4-19.628-14.707h-2.575c-8.574,0-17.148.018-25.722-.018a9.633,9.633,0,0,1-3.255-.476c-2.089-.775-3.13-2.767-3.041-5.406a29.6,29.6,0,0,1,6.163-17.473A35.77,35.77,0,0,0,158.1,76.624a36.523,36.523,0,0,0,1.623-10.9c.019-5.837-.234-11.7.19-17.508,1.106-15.149,8.686-26.194,22.013-33.363.585-.315,1.182-.606,1.771-.914.062-.032.1-.1.166-.172m59.186,87.007a16.356,16.356,0,0,0-2.951-6.495c-1.175-1.7-2.454-3.338-3.517-5.105a42.858,42.858,0,0,1-6.494-22.9c.051-4.943.014-9.888.008-14.832-.014-13.423-7.5-24.245-20.056-28.99-3.2-1.207-3.992-2.528-4.168-5.979a8.335,8.335,0,0,0-1.21-3.91,5.6,5.6,0,0,0-6.486-2.076,5.827,5.827,0,0,0-4.095,5.694c-.085,3.825-.878,5.042-4.074,6.247-12.656,4.773-20.148,15.581-20.15,29.163,0,4.429.216,8.857.193,13.285a46.427,46.427,0,0,1-9.445,28.5,43.139,43.139,0,0,0-3.275,5.743,6.694,6.694,0,0,0-.386,1.656Zm-51.3,10.4c2.543,3.4,5.521,4.795,9.247,4.444a9.459,9.459,0,0,0,7.2-4.444Z" transform="translate(374.785 796.639)" fill="#f2f2f2"/>
      <g transform="matrix(1, 0, 0, 1, 456, 796.64)" filter="url(#Path_1347)">
        <path id="Path_1347-3" data-name="Path 1347" d="M183.859,13.771C187.183,4.225,192.537-.215,200.468.007c7.612.214,13.178,5.111,15.568,13.773,1.424.771,2.957,1.5,4.39,2.394,12.712,7.9,19.356,19.347,19.8,34.312.139,4.645.108,9.3,0,13.949A35.668,35.668,0,0,0,247.98,87.9a28.591,28.591,0,0,1,6,16.848c.169,4.315-1.769,6.3-6.075,6.309q-13.083.029-26.165.009H219.39c-3.344,9.162-9.5,14.612-19.2,14.7-9.91.089-16.193-5.4-19.628-14.707h-2.575c-8.574,0-17.148.018-25.722-.018a9.633,9.633,0,0,1-3.255-.476c-2.089-.775-3.13-2.767-3.041-5.406a29.6,29.6,0,0,1,6.163-17.473A35.77,35.77,0,0,0,158.1,76.624a36.523,36.523,0,0,0,1.623-10.9c.019-5.837-.234-11.7.19-17.508,1.106-15.149,8.686-26.194,22.013-33.363.585-.315,1.182-.606,1.771-.914.062-.032.1-.1.166-.172m59.186,87.007a16.356,16.356,0,0,0-2.951-6.495c-1.175-1.7-2.454-3.338-3.517-5.105a42.858,42.858,0,0,1-6.494-22.9c.051-4.943.014-9.888.008-14.832-.014-13.423-7.5-24.245-20.056-28.99-3.2-1.207-3.992-2.528-4.168-5.979a8.335,8.335,0,0,0-1.21-3.91,5.6,5.6,0,0,0-6.486-2.076,5.827,5.827,0,0,0-4.095,5.694c-.085,3.825-.878,5.042-4.074,6.247-12.656,4.773-20.148,15.581-20.15,29.163,0,4.429.216,8.857.193,13.285a46.427,46.427,0,0,1-9.445,28.5,43.139,43.139,0,0,0-3.275,5.743,6.694,6.694,0,0,0-.386,1.656Zm-51.3,10.4c2.543,3.4,5.521,4.795,9.247,4.444a9.459,9.459,0,0,0,7.2-4.444Z" transform="translate(-81.21 0)" fill="#fff"/>
      </g>
    </g>
    <g data-type="innerShadowGroup">
      <path id="Path_1348-2" data-name="Path 1348" d="M488.548,77.487c-.318-16.331-5.93-30.379-17.167-42.127a5.824,5.824,0,0,1-2.017-4.039,4.845,4.845,0,0,1,2.783-4.672,4.78,4.78,0,0,1,5.228.432,10.284,10.284,0,0,1,1.463,1.349c11.446,12.048,18.14,26.3,19.5,42.894,1.717,21.04-4.84,39.268-19.129,54.753a13.878,13.878,0,0,1-1.753,1.688,5.056,5.056,0,0,1-7.144-7,19.24,19.24,0,0,1,1.63-1.807,60.433,60.433,0,0,0,16.611-41.471" transform="translate(194.858 782.136)" fill="#f2f2f2"/>
      <g transform="matrix(1, 0, 0, 1, 456, 796.64)" filter="url(#Path_1348)">
        <path id="Path_1348-3" data-name="Path 1348" d="M488.548,77.487c-.318-16.331-5.93-30.379-17.167-42.127a5.824,5.824,0,0,1-2.017-4.039,4.845,4.845,0,0,1,2.783-4.672,4.78,4.78,0,0,1,5.228.432,10.284,10.284,0,0,1,1.463,1.349c11.446,12.048,18.14,26.3,19.5,42.894,1.717,21.04-4.84,39.268-19.129,54.753a13.878,13.878,0,0,1-1.753,1.688,5.056,5.056,0,0,1-7.144-7,19.24,19.24,0,0,1,1.63-1.807,60.433,60.433,0,0,0,16.611-41.471" transform="translate(-261.14 -14.5)" fill="#fff"/>
      </g>
    </g>
    <g data-type="innerShadowGroup">
      <path id="Path_1349-2" data-name="Path 1349" d="M0,77.853C.243,58.821,6.651,42.6,19.412,28.917a14.448,14.448,0,0,1,1.927-1.824,5.055,5.055,0,0,1,7.109,6.979,12.927,12.927,0,0,1-1.317,1.493,60.271,60.271,0,0,0-.208,83.6,18.266,18.266,0,0,1,1.341,1.473,5.057,5.057,0,0,1-7.22,7,11.546,11.546,0,0,1-1.114-1.077A69.993,69.993,0,0,1,0,77.853" transform="translate(456 782.105)" fill="#f2f2f2"/>
      <g transform="matrix(1, 0, 0, 1, 456, 796.64)" filter="url(#Path_1349)">
        <path id="Path_1349-3" data-name="Path 1349" d="M0,77.853C.243,58.821,6.651,42.6,19.412,28.917a14.448,14.448,0,0,1,1.927-1.824,5.055,5.055,0,0,1,7.109,6.979,12.927,12.927,0,0,1-1.317,1.493,60.271,60.271,0,0,0-.208,83.6,18.266,18.266,0,0,1,1.341,1.473,5.057,5.057,0,0,1-7.22,7,11.546,11.546,0,0,1-1.114-1.077A69.993,69.993,0,0,1,0,77.853" transform="translate(0 -14.53)" fill="#fff"/>
      </g>
    </g>
    <g data-type="innerShadowGroup">
      <path id="Path_1350-2" data-name="Path 1350" d="M462.073,94.915a50.853,50.853,0,0,1-14.226,35.13,10.256,10.256,0,0,1-1.463,1.347,5.055,5.055,0,0,1-7.276-6.68,11.725,11.725,0,0,1,1.552-1.867,40.887,40.887,0,0,0,.058-56.247,16.588,16.588,0,0,1-1.328-1.484,5.061,5.061,0,0,1,7.1-7.05,11.414,11.414,0,0,1,1.443,1.369,51.015,51.015,0,0,1,14.137,35.482" transform="translate(212.074 764.892)" fill="#f2f2f2"/>
      <g transform="matrix(1, 0, 0, 1, 456, 796.64)" filter="url(#Path_1350)">
        <path id="Path_1350-3" data-name="Path 1350" d="M462.073,94.915a50.853,50.853,0,0,1-14.226,35.13,10.256,10.256,0,0,1-1.463,1.347,5.055,5.055,0,0,1-7.276-6.68,11.725,11.725,0,0,1,1.552-1.867,40.887,40.887,0,0,0,.058-56.247,16.588,16.588,0,0,1-1.328-1.484,5.061,5.061,0,0,1,7.1-7.05,11.414,11.414,0,0,1,1.443,1.369,51.015,51.015,0,0,1,14.137,35.482" transform="translate(-243.93 -31.75)" fill="#fff"/>
      </g>
    </g>
    <g data-type="innerShadowGroup">
      <path id="Path_1351-2" data-name="Path 1351" d="M43.7,93.986A50.83,50.83,0,0,1,57.748,59.513a13.962,13.962,0,0,1,1.261-1.244A5.065,5.065,0,0,1,66.2,65.351c-.365.462-.8.871-1.2,1.3a40.864,40.864,0,0,0-.263,55.752c.448.49.936.948,1.358,1.459a5.092,5.092,0,0,1-.285,7.02,4.947,4.947,0,0,1-7,.006,47.363,47.363,0,0,1-8.787-11.617A52.023,52.023,0,0,1,43.7,93.986" transform="translate(431.689 764.902)" fill="#f2f2f2"/>
      <g transform="matrix(1, 0, 0, 1, 456, 796.64)" filter="url(#Path_1351)">
        <path id="Path_1351-3" data-name="Path 1351" d="M43.7,93.986A50.83,50.83,0,0,1,57.748,59.513a13.962,13.962,0,0,1,1.261-1.244A5.065,5.065,0,0,1,66.2,65.351c-.365.462-.8.871-1.2,1.3a40.864,40.864,0,0,0-.263,55.752c.448.49.936.948,1.358,1.459a5.092,5.092,0,0,1-.285,7.02,4.947,4.947,0,0,1-7,.006,47.363,47.363,0,0,1-8.787-11.617A52.023,52.023,0,0,1,43.7,93.986" transform="translate(-24.31 -31.74)" fill="#fff"/>
      </g>
    </g>
    <g data-type="innerShadowGroup">
      <path id="Path_1352-2" data-name="Path 1352" d="M87.491,111.071a31.113,31.113,0,0,1,8.85-21.181,5.236,5.236,0,0,1,4.508-1.909,4.774,4.774,0,0,1,4.116,2.948,4.941,4.941,0,0,1-.6,5.225c-.358.468-.783.882-1.176,1.323-5.006,5.609-6.337,12.229-4.894,19.385a20.531,20.531,0,0,0,5.237,9.84,7.484,7.484,0,0,1,1.734,2.991,4.779,4.779,0,0,1-2.411,5.453,4.975,4.975,0,0,1-5.944-.756,29.685,29.685,0,0,1-6.839-9.973,32.735,32.735,0,0,1-2.579-13.346" transform="translate(407.319 747.704)" fill="#f2f2f2"/>
      <g transform="matrix(1, 0, 0, 1, 456, 796.64)" filter="url(#Path_1352)">
        <path id="Path_1352-3" data-name="Path 1352" d="M87.491,111.071a31.113,31.113,0,0,1,8.85-21.181,5.236,5.236,0,0,1,4.508-1.909,4.774,4.774,0,0,1,4.116,2.948,4.941,4.941,0,0,1-.6,5.225c-.358.468-.783.882-1.176,1.323-5.006,5.609-6.337,12.229-4.894,19.385a20.531,20.531,0,0,0,5.237,9.84,7.484,7.484,0,0,1,1.734,2.991,4.779,4.779,0,0,1-2.411,5.453,4.975,4.975,0,0,1-5.944-.756,29.685,29.685,0,0,1-6.839-9.973,32.735,32.735,0,0,1-2.579-13.346" transform="translate(-48.68 -48.93)" fill="#fff"/>
      </g>
    </g>
    <g data-type="innerShadowGroup">
      <path id="Path_1353-2" data-name="Path 1353" d="M425.435,111.84a31.314,31.314,0,0,1-8.2,21.341,12.256,12.256,0,0,1-1.583,1.543,5.052,5.052,0,0,1-7.34-6.729,13.675,13.675,0,0,1,1.426-1.687,21.616,21.616,0,0,0-.007-28.872,16.42,16.42,0,0,1-1.177-1.322,5.059,5.059,0,0,1,7.277-6.948,11.978,11.978,0,0,1,1.258,1.244,31.206,31.206,0,0,1,8.349,21.43" transform="translate(229.272 747.704)" fill="#f2f2f2"/>
      <g transform="matrix(1, 0, 0, 1, 456, 796.64)" filter="url(#Path_1353)">
        <path id="Path_1353-3" data-name="Path 1353" d="M425.435,111.84a31.314,31.314,0,0,1-8.2,21.341,12.256,12.256,0,0,1-1.583,1.543,5.052,5.052,0,0,1-7.34-6.729,13.675,13.675,0,0,1,1.426-1.687,21.616,21.616,0,0,0-.007-28.872,16.42,16.42,0,0,1-1.177-1.322,5.059,5.059,0,0,1,7.277-6.948,11.978,11.978,0,0,1,1.258,1.244,31.206,31.206,0,0,1,8.349,21.43" transform="translate(-226.73 -48.93)" fill="#fff"/>
      </g>
    </g>
  </g>
</svg>
