<svg id="White_Logo" data-name="White Logo" xmlns="http://www.w3.org/2000/svg" width="102" height="22" viewBox="0 0 102 22">
  <g id="White_Logo-2" data-name="White Logo">
    <g id="White_Logo-3" data-name="White Logo" transform="translate(0 0.988)">
      <path id="Path_481" data-name="Path 481" d="M1161.364,755.6v5.083h3.2v3.173h-3.2v8.962h-3.677V752.075h7.922V755.6Z" transform="translate(-1157.687 -752.075)" fill="#fff"/>
      <path id="Path_482" data-name="Path 482" d="M1167.013,773.179v-16.77h3.5v16.77Z" transform="translate(-1157.687 -752.436)" fill="#fff"/>
      <path id="Path_483" data-name="Path 483" d="M1175.264,756.409l1.315,10.552,1.255-10.552h3.677l-3.079,16.77h-3.766l-3.079-16.77Z" transform="translate(-1157.687 -752.436)" fill="#fff"/>
      <path id="Path_484" data-name="Path 484" d="M1191.285,769.532c0,2.152-1.614,3.856-4.394,3.856s-4.394-1.764-4.394-4.574v-7.981c0-2.87,1.614-4.633,4.394-4.633s4.394,1.644,4.394,4.513v5.53h-5.29v3.348a.842.842,0,0,0,.9.957.825.825,0,0,0,.927-.807v-.688h3.467Zm-3.467-5.68v-3.8a.861.861,0,0,0-.927-.987c-.418,0-.9.18-.9.987v3.8Z" transform="translate(-1157.444 -752.436)" fill="#fff"/>
      <path id="Path_485" data-name="Path 485" d="M1193.438,772.818V752.075h3.706v17.246h4.036v3.5Z" transform="translate(-1157.341 -752.075)" fill="#fff"/>
      <path id="Path_486" data-name="Path 486" d="M1211.224,756.409v12.345c0,2.87-1.644,4.634-4.4,4.634-2.809,0-4.394-1.764-4.394-4.634V756.409h3.5v12.854c0,.807.508.986.9.986s.9-.179.9-.986V756.409Z" transform="translate(-1157.249 -752.436)" fill="#fff"/>
      <path id="Path_487" data-name="Path 487" d="M1213.316,773.179v-16.77h3.288v1.016a2.386,2.386,0,0,1,2.182-1.166,2.758,2.758,0,0,1,2.571,1.376,3.091,3.091,0,0,1,2.631-1.376c1.853,0,3.079,1.047,3.079,4.1v12.824h-3.528V760.534c0-.807-.418-.986-.807-.986-.359,0-.807.209-.807.986v12.645h-3.5V760.534c0-.807-.419-.986-.837-.986-.359,0-.777.179-.777.986v12.645Z" transform="translate(-1157.111 -752.436)" fill="#fff"/>
      <path id="Path_488" data-name="Path 488" d="M1237.888,769.532c0,2.152-1.615,3.856-4.394,3.856s-4.4-1.764-4.4-4.574v-7.981c0-2.87,1.615-4.633,4.4-4.633s4.394,1.644,4.394,4.513v5.53H1232.6v3.348a.843.843,0,0,0,.9.957.825.825,0,0,0,.926-.807v-.688h3.468Zm-3.468-5.68v-3.8a.861.861,0,0,0-.926-.987c-.419,0-.9.18-.9.987v3.8Z" transform="translate(-1156.988 -752.436)" fill="#fff"/>
      <path id="Path_489" data-name="Path 489" d="M1239.831,773.179v-16.77h3.288v1.016a2.784,2.784,0,0,1,2.331-1.166c1.884,0,3.169,1.047,3.169,4.1v12.824h-3.527V760.534c0-.807-.478-.986-.9-.986-.359,0-.867.179-.867.986v12.645Z" transform="translate(-1156.783 -752.436)" fill="#fff"/>
      <path id="Path_490" data-name="Path 490" d="M1258.693,760.534h-3.468c0-1.166-.388-1.435-.926-1.435-.509,0-.807.329-.807.9a2.207,2.207,0,0,0,.567,1.405l3.229,4.215a6.382,6.382,0,0,1,1.495,4c0,2.362-1.555,3.827-4.4,3.827-2.81,0-4.573-1.555-4.573-4.4h3.5c0,1.136.568,1.435,1.076,1.435a.867.867,0,0,0,.927-.956,2.4,2.4,0,0,0-.687-1.615l-3.229-4.184a5.467,5.467,0,0,1-1.375-3.8c0-2.212,1.614-3.706,4.185-3.706C1257.019,756.23,1258.693,757.6,1258.693,760.534Z" transform="translate(-1156.783 -752.436)" fill="#fff"/>
    </g>
    <g id="Group_758" data-name="Group 758" transform="translate(8.885)">
      <path id="Path_491" data-name="Path 491" d="M1168.664,755.242a2.078,2.078,0,1,1,0-4.155,2.078,2.078,0,1,1,0,4.155Z" transform="translate(-1166.572 -751.087)" fill="#fdac41"/>
    </g>
    <g id="Group_759" data-name="Group 759" transform="translate(13.924)">
      <path id="Path_492" data-name="Path 492" d="M1173.7,755.242a2.078,2.078,0,1,1,0-4.155,2.078,2.078,0,1,1,0,4.155Z" transform="translate(-1171.611 -751.087)" fill="#fdac41"/>
    </g>
    <g id="Group_760" data-name="Group 760" transform="translate(19.159)">
      <path id="Path_493" data-name="Path 493" d="M1178.742,755.242a2.078,2.078,0,1,1,0-4.155,2.078,2.078,0,1,1,0,4.155Z" transform="translate(-1176.65 -751.087)" fill="#fdac41"/>
    </g>
    <g id="Group_761" data-name="Group 761" transform="translate(24.25)">
      <path id="Path_494" data-name="Path 494" d="M1183.781,755.242a2.078,2.078,0,1,1,0-4.155,2.078,2.078,0,1,1,0,4.155Z" transform="translate(-1181.689 -751.087)" fill="#fdac41"/>
    </g>
    <g id="Group_762" data-name="Group 762" transform="translate(29.341)">
      <path id="Path_495" data-name="Path 495" d="M1188.82,755.242a2.078,2.078,0,1,1,0-4.155,2.078,2.078,0,1,1,0,4.155Z" transform="translate(-1186.728 -751.087)" fill="#fdac41"/>
    </g>
  </g>
</svg>
