<svg xmlns="http://www.w3.org/2000/svg" width="18" height="15.189" viewBox="0 0 18 15.189">
  <path id="Path_1169" data-name="Path 1169" d="M4.909,32.095a.422.422,0,0,0-.6,0h0L2.072,34.32l-.8-.778a.422.422,0,0,0-.6,0h0L.125,34.1a.422.422,0,0,0,0,.6h0L1.8,36.359a.449.449,0,0,0,.619,0l.548-.549L5.5,33.272a.425.425,0,0,0,0-.6Zm0,5.6a.422.422,0,0,0-.6,0h0l-2.239,2.24-.8-.777a.422.422,0,0,0-.6,0h0l-.552.552a.422.422,0,0,0,0,.6h0l1.669,1.67a.449.449,0,0,0,.619,0l.552-.552L5.5,38.883a.422.422,0,0,0,0-.594ZM2.251,43.784a1.688,1.688,0,1,0,0,3.375,1.688,1.688,0,0,0,0-3.375Zm15.188.563H7.313a.562.562,0,0,0-.563.563v1.125a.562.562,0,0,0,.563.563H17.438A.562.562,0,0,0,18,46.034V44.909A.562.562,0,0,0,17.438,44.347Zm0-11.25H7.313a.562.562,0,0,0-.563.563v1.125a.562.562,0,0,0,.563.563H17.438A.562.562,0,0,0,18,34.784V33.659A.562.562,0,0,0,17.438,33.1Zm0,5.625H7.313a.562.562,0,0,0-.563.563v1.125a.562.562,0,0,0,.563.563H17.438A.562.562,0,0,0,18,40.409V39.284A.562.562,0,0,0,17.438,38.722Z" transform="translate(-0.001 -31.971)" fill="#fff"/>
</svg>
