<svg xmlns="http://www.w3.org/2000/svg" width="18" height="18" viewBox="0 0 18 18">
  <g id="Group_3407" data-name="Group 3407" transform="translate(-6592 3850)">
    <g id="Group_3406" data-name="Group 3406" transform="translate(6592 -3850)">
      <path id="Path_1170" data-name="Path 1170" d="M10,1a9,9,0,1,0,9,9A9,9,0,0,0,10,1Zm0,15.176A6.176,6.176,0,1,1,16.176,10,6.176,6.176,0,0,1,10,16.176Z" transform="translate(-1 -1)" fill="#fff" opacity="0.5"/>
      <path id="Path_1171" data-name="Path 1171" d="M255.5,3.824h.018a6.176,6.176,0,0,1,4.367,10.544l2,2A9,9,0,0,0,255.518,1H255.5Z" transform="translate(-246.518 -1)" fill="#fff"/>
    </g>
  </g>
</svg>
